<?xml version="1.0" encoding="utf-8"?>
<!-- Generator: Adobe Illustrator 27.3.1, SVG Export Plug-In . SVG Version: 6.00 Build 0)  -->
<svg version="1.1" id="Ebene_1" xmlns="http://www.w3.org/2000/svg" xmlns:xlink="http://www.w3.org/1999/xlink" x="0px" y="0px"
	 viewBox="0 0 152 33.1" style="enable-background:new 0 0 152 33.1;" xml:space="preserve">
<style type="text/css">
	.st0{fill:#FFFFFF;stroke:#000000;stroke-width:0.5582;stroke-miterlimit:10;}
</style>
<path d="M135.6,32.9H16.4c-9,0-16.4-7.3-16.4-16.4c0-9,7.3-16.4,16.4-16.4h119.1c9,0,16.4,7.3,16.4,16.4
	C151.9,25.6,144.6,32.9,135.6,32.9z M16.4,0.7C7.7,0.7,0.6,7.8,0.6,16.5c0,8.7,7.1,15.8,15.8,15.8h119.1c8.7,0,15.8-7.1,15.8-15.8
	c0-8.7-7.1-15.8-15.8-15.8H16.4z"/>
<polygon class="st0" points="80.3,27.7 65.9,5.3 51.6,27.7 51.6,27.7 65.9,15.9 "/>
<polygon points="80.3,27.7 65.9,11.2 65.9,5.3 "/>
<polygon points="51.6,27.7 65.9,11.2 65.9,15.9 "/>
<path d="M26.5,23.6c-1.9,2.7-5.1,4.5-9.3,4.5c-6.8,0-11.4-4.7-11.4-11.6C5.7,9.7,10.4,5,17.1,5c3.9,0,7.1,1.5,9.1,4.1
	c0.1,0.1,0.2,0.3,0.2,0.5c0,0.4-0.3,0.6-0.6,0.6c-0.2,0-0.4-0.1-0.5-0.3c-1.8-2.4-4.6-3.8-8.1-3.8C11.1,6.1,7,10.4,7,16.5
	c0,6.2,4.1,10.4,10.2,10.4c3.5,0,6.4-1.4,8.3-4.1c0.2-0.2,0.3-0.3,0.5-0.3c0.3,0,0.6,0.3,0.6,0.6C26.6,23.4,26.6,23.5,26.5,23.6z"/>
<path d="M47.1,26.5c0.4,0,0.7,0.2,0.7,0.6c0,0.4-0.2,0.6-0.7,0.6H29.7c-0.5,0-0.7-0.2-0.7-0.6c0-0.3,0.1-0.4,0.3-0.7L45.7,6.5H30.2
	c-0.4,0-0.7-0.2-0.7-0.6c0-0.4,0.3-0.6,0.7-0.6h16.7c0.4,0,0.7,0.3,0.7,0.6c0,0.2-0.1,0.4-0.3,0.6L30.9,26.5H47.1z"/>
<path d="M102.3,26.6c0.1,0.2,0.2,0.3,0.2,0.5c0,0.4-0.3,0.7-0.6,0.7c-0.3,0-0.4-0.1-0.6-0.3l-7.5-9.3h-8.6v8.9
	c0,0.4-0.2,0.7-0.6,0.7c-0.4,0-0.6-0.3-0.6-0.7V6c0-0.4,0.3-0.7,0.7-0.7h10.8c4.5,0,7,2.3,7,6.4c0,4.2-2.4,6.4-6.9,6.5v0.1
	L102.3,26.6z M95.2,17c3.8,0,5.8-1.8,5.8-5.3c0-3.5-2-5.3-5.8-5.3H85.1V17H95.2z"/>
<path d="M123.4,5.3c0.4,0,0.6,0.2,0.6,0.6c0,0.4-0.2,0.6-0.6,0.6h-8.8v20.7c0,0.4-0.2,0.7-0.6,0.7c-0.4,0-0.6-0.3-0.6-0.7V6.4h-8.9
	c-0.4,0-0.7-0.2-0.7-0.6c0-0.4,0.3-0.6,0.7-0.6H123.4z"/>
<path d="M135.7,5c6.8,0,11.4,4.7,11.4,11.6c0,6.9-4.7,11.6-11.4,11.6c-6.8,0-11.5-4.7-11.5-11.6C124.2,9.7,128.9,5,135.7,5z
	 M135.7,26.9c6,0,10.1-4.2,10.1-10.4c0-6.2-4.1-10.4-10.1-10.4c-6,0-10.2,4.2-10.2,10.4C125.5,22.7,129.7,26.9,135.7,26.9z"/>
</svg>
