<?xml version="1.0" encoding="UTF-8"?>
<svg id="Ebene_1" xmlns="http://www.w3.org/2000/svg" version="1.1" viewBox="0 0 551.4 118.9">
  <!-- Generator: Adobe Illustrator 30.5.1, SVG Export Plug-In . SVG Version: 2.1.4 Build 3)  -->
  <defs>
    <style>
      .st0 {
        display: none;
      }

      .st0, .st1, .st2, .st3 {
        fill: #192c2a;
      }

      .st1 {
        opacity: .8;
      }

      .st2 {
        opacity: .8;
      }

      .st4 {
        fill: #fff;
      }

      .st3 {
        stroke: #fff;
        stroke-miterlimit: 10;
        stroke-width: 2px;
      }
    </style>
  </defs>
  <rect class="st0" x="-24.3" y="-40.5" width="600" height="200"/>
  <g>
    <rect class="st3" x="1" y="1" width="549.4" height="116.9" rx="58.4" ry="58.4"/>
    <polygon class="st4" points="291.2 100.2 239.2 18.7 187.1 100.2 187.1 100.2 239.2 57 291.2 100.2"/>
    <polygon class="st2" points="291.2 100.2 239.2 40.1 239.2 18.7 291.2 100.2"/>
    <polygon class="st1" points="187.1 100.2 239.2 40.1 239.2 57 187.1 100.2"/>
    <path class="st4" d="M95.8,85.2c-6.8,9.7-18.6,16.2-33.9,16.2-24.6,0-41.5-17.1-41.5-42S37.4,17.4,61.9,17.4s25.7,5.4,33.1,15c.4.5.6,1.1.6,1.7,0,1.3-1,2.3-2.2,2.3s-1.5-.4-1.9-1c-6.5-8.7-16.8-13.8-29.4-13.8-21.9,0-36.9,15.4-36.9,37.8s15,37.8,36.9,37.8,23.4-5.1,30.3-15c.6-.7,1.1-1,1.9-1,1.2,0,2.2,1,2.2,2.3s-.2,1.2-.6,1.7Z"/>
    <path class="st4" d="M170.6,95.8c1.6,0,2.4.7,2.4,2.2s-.9,2.1-2.4,2.1h-63c-1.7,0-2.5-.8-2.5-2.2s.4-1.6,1.1-2.5l59.6-72.2h-56.4c-1.5,0-2.4-.7-2.4-2.2s1-2.1,2.4-2.1h60.6c1.6,0,2.4,1,2.4,2.2s-.2,1.5-1,2.3l-59.7,72.4h58.8Z"/>
    <path class="st4" d="M371,96.1c.5.6.7,1.1.7,1.8,0,1.3-1,2.4-2.3,2.4s-1.4-.2-2.2-1.1l-27.2-33.8h-31.3v32.3c0,1.6-.9,2.5-2.3,2.5s-2.3-1-2.3-2.5V21.1c0-1.6,1-2.5,2.5-2.5h39.1c16.5,0,25.4,8.2,25.4,23.4s-8.8,23.4-25.2,23.5v.2l25.1,30.5ZM345.4,61.3c13.8,0,21.1-6.5,21.1-19.2s-7.3-19.3-21.1-19.3h-36.7v38.5h36.7Z"/>
    <path class="st4" d="M447.9,18.5c1.5,0,2.3.7,2.3,2.1s-.8,2.2-2.3,2.2h-32.1v75.1c0,1.6-.8,2.5-2.3,2.5s-2.3-1-2.3-2.5V22.8h-32.3c-1.4,0-2.4-.7-2.4-2.2s1-2.1,2.4-2.1h69Z"/>
    <path class="st4" d="M492.4,17.4c24.6,0,41.5,17.1,41.5,42s-16.9,42-41.5,42-41.6-17.1-41.6-42,17-42,41.6-42ZM492.4,97.2c21.8,0,36.8-15.4,36.8-37.8s-15-37.8-36.8-37.8-36.9,15.4-36.9,37.8,15,37.8,36.9,37.8Z"/>
  </g>
</svg>